<svg width="263" height="263" viewBox="0 0 263 263" fill="none" xmlns="http://www.w3.org/2000/svg">
<rect y="6.03662" width="256.273" height="256.273" transform="rotate(-1.34979 0 6.03662)" fill="white"/>
<path d="M171.616 72.4603L173.004 70.9998C173.643 71.3019 174.455 72.2345 175.439 73.7976C176.582 75.357 177.247 76.769 177.435 78.0337C177.78 79.2946 177.966 80.48 177.992 81.5898C178.092 85.8707 177.247 90.2532 175.457 94.7375L132.213 190.944L129.845 191L83 73.1292L99.5796 72.7369L138.128 170.339L173.088 94.7935C174.905 91.4191 175.759 87.433 175.651 82.835C175.543 78.237 174.198 74.7788 171.616 72.4603Z" fill="black"/>
</svg>
