<svg width="955" height="483" viewBox="0 0 955 483" fill="none" xmlns="http://www.w3.org/2000/svg">
<rect width="955" height="483" fill="#F9F7F0"/>
<path d="M545.267 285.326C538.289 271.358 530.261 253.388 526.834 245.372L525.159 241.783C523.783 238.957 522.533 236.131 521.195 233.305L516.543 223.363C514.204 218.361 512.003 213.259 509.24 208.445C508.127 206.506 506.826 204.693 505.588 202.855C501.81 197.699 497.264 193.152 492.108 189.374C489.549 187.482 486.862 185.769 484.067 184.247L479.74 182.246C479.002 181.921 478.289 181.559 477.552 181.296L475.288 180.521C463.02 176.299 449.766 175.864 437.248 179.27C434.107 180.192 431.032 181.325 428.044 182.659C426.568 183.359 425.018 183.985 423.605 184.797L419.403 187.298C416.629 189.06 414.018 191.064 411.6 193.288C410.349 194.351 409.274 195.552 408.111 196.702C406.932 197.841 405.825 199.052 404.797 200.329C396.197 210.56 391.074 223.26 390.166 236.594C389.679 243.251 390.266 249.943 391.904 256.414C392.703 259.639 393.731 262.802 394.98 265.881C395.631 267.406 396.393 268.894 397.144 270.37C397.818 271.753 398.583 273.089 399.432 274.372C395.204 261.324 396.149 247.151 402.071 234.78C405.447 227.738 410.276 221.491 416.239 216.448C422.306 211.295 429.38 207.462 437.01 205.193C445.64 202.575 454.777 202.094 463.633 203.793C470.579 205.286 476.958 208.72 482.028 213.697C488.156 219.674 491.32 227.778 494.946 235.331C497.989 241.633 501.024 247.94 504.05 254.251C505.842 257.986 507.639 261.737 509.44 265.506C509.677 266.018 511.941 269.607 511.653 270.12C512.904 272.746 514.729 276.573 516.718 280.749C523.27 294.505 535.025 305.347 551.107 306.047C554.858 306.21 561.549 305.797 565 300.87C558.26 300.307 549.569 293.917 545.267 285.326Z" fill="#18B7BE"/>
<path d="M531.286 227.89C538.914 211.417 546.659 195.006 554.521 178.657H525.484C521.595 187.236 517.643 195.789 513.691 204.355L528.06 234.83L531.286 227.89Z" fill="#072A40"/>
<path d="M493.983 246.573C489.056 263.655 473.375 278.648 456.63 278.423C437.585 278.161 422.129 261.379 422.129 240.358C422.079 234.803 423.199 229.3 425.416 224.207C427.633 219.114 430.897 214.544 434.997 210.796C424.917 215.727 416.806 223.929 411.985 234.062C407.165 244.195 405.919 255.662 408.452 266.594C410.985 277.526 417.146 287.277 425.932 294.258C434.718 301.239 445.609 305.037 456.831 305.034C464.708 304.897 472.482 303.219 479.715 300.095C486.967 296.992 493.584 292.579 499.235 287.077L500.836 285.514C502.324 283.788 503.9 282.112 505.3 280.312C505.863 279.574 506.413 278.823 506.901 278.036L508.239 276.072L493.983 246.573Z" fill="#072A40"/>
</svg>
