<svg width="1716" height="483" viewBox="0 0 1716 483" fill="none" xmlns="http://www.w3.org/2000/svg">
<rect width="1716" height="483" fill="#F9F7F0"/>
<path d="M925.267 285.326C918.289 271.358 910.261 253.388 906.834 245.372L905.159 241.783C903.783 238.957 902.533 236.131 901.195 233.305L896.543 223.363C894.204 218.361 892.003 213.259 889.24 208.445C888.127 206.506 886.826 204.693 885.588 202.855C881.81 197.699 877.264 193.152 872.108 189.374C869.549 187.482 866.862 185.769 864.067 184.247L859.74 182.246C859.002 181.921 858.289 181.559 857.552 181.296L855.288 180.521C843.02 176.299 829.766 175.864 817.248 179.27C814.107 180.192 811.032 181.325 808.044 182.659C806.568 183.359 805.018 183.985 803.605 184.797L799.403 187.298C796.629 189.06 794.018 191.064 791.6 193.288C790.349 194.351 789.274 195.552 788.111 196.702C786.932 197.841 785.825 199.052 784.797 200.329C776.197 210.56 771.074 223.26 770.166 236.594C769.679 243.251 770.266 249.943 771.904 256.414C772.703 259.639 773.731 262.802 774.98 265.881C775.631 267.406 776.393 268.894 777.144 270.37C777.818 271.753 778.583 273.089 779.432 274.372C775.204 261.324 776.149 247.151 782.071 234.78C785.447 227.738 790.276 221.491 796.239 216.448C802.306 211.295 809.38 207.462 817.01 205.193C825.64 202.575 834.777 202.094 843.633 203.793C850.579 205.286 856.958 208.72 862.028 213.697C868.156 219.674 871.32 227.778 874.946 235.331C877.989 241.633 881.024 247.94 884.05 254.251C885.842 257.986 887.639 261.737 889.44 265.506C889.677 266.018 891.941 269.607 891.653 270.12C892.904 272.746 894.729 276.573 896.718 280.749C903.27 294.505 915.025 305.347 931.107 306.047C934.858 306.21 941.549 305.797 945 300.87C938.26 300.307 929.569 293.917 925.267 285.326Z" fill="#18B7BE"/>
<path d="M911.286 227.89C918.914 211.417 926.659 195.006 934.521 178.657H905.484C901.595 187.236 897.643 195.789 893.691 204.355L908.06 234.83L911.286 227.89Z" fill="#072A40"/>
<path d="M873.983 246.573C869.056 263.655 853.375 278.648 836.63 278.423C817.585 278.161 802.129 261.379 802.129 240.358C802.079 234.803 803.199 229.3 805.416 224.207C807.633 219.114 810.897 214.544 814.997 210.796C804.917 215.727 796.806 223.929 791.985 234.062C787.165 244.195 785.919 255.662 788.452 266.594C790.985 277.526 797.146 287.277 805.932 294.258C814.718 301.239 825.609 305.037 836.831 305.034C844.708 304.897 852.482 303.219 859.715 300.095C866.967 296.992 873.584 292.579 879.235 287.077L880.836 285.514C882.324 283.788 883.9 282.112 885.3 280.312C885.863 279.574 886.413 278.823 886.901 278.036L888.239 276.072L873.983 246.573Z" fill="#072A40"/>
</svg>
