<svg width="162" height="90" viewBox="0 0 162 90" fill="none" xmlns="http://www.w3.org/2000/svg">
<rect width="162" height="90" fill="white"/>
<path d="M70.228 38.2727V63H65V38.2727H70.228Z" fill="black"/>
<path d="M90.9246 46.2657C90.7556 45.6781 90.5182 45.159 90.2123 44.7082C89.9064 44.2494 89.5321 43.863 89.0894 43.5491C88.6548 43.2271 88.1557 42.9816 87.5923 42.8126C87.0369 42.6436 86.4211 42.5591 85.745 42.5591C84.4812 42.5591 83.3705 42.873 82.4127 43.5008C81.4629 44.1287 80.7223 45.0422 80.1911 46.2416C79.6598 47.4329 79.3941 48.8898 79.3941 50.6123C79.3941 52.3349 79.6558 53.7998 80.179 55.0072C80.7022 56.2146 81.4426 57.1362 82.4005 57.7721C83.3583 58.4 84.4894 58.7139 85.7933 58.7139C86.9766 58.7139 87.9867 58.5046 88.8238 58.086C89.669 57.6594 90.3129 57.0598 90.7556 56.287C91.2064 55.5143 91.4318 54.6007 91.4318 53.5463L92.4943 53.7032H86.1193V49.7671H96.4665V52.8822C96.4665 55.0555 96.0077 56.9229 95.0901 58.4845C94.1725 60.038 92.9089 61.2373 91.299 62.0825C89.6892 62.9196 87.8459 63.3382 85.7692 63.3382C83.451 63.3382 81.4145 62.827 79.6597 61.8048C77.9051 60.7745 76.5366 59.3136 75.5546 57.422C74.5807 55.5224 74.0938 53.2686 74.0938 50.6606C74.0938 48.6564 74.3834 46.8694 74.963 45.2998C75.5506 43.7222 76.3716 42.386 77.4261 41.2913C78.4805 40.1966 79.708 39.3635 81.1086 38.792C82.5092 38.2205 84.0264 37.9348 85.6604 37.9348C87.061 37.9348 88.365 38.14 89.5724 38.5505C90.7798 38.953 91.8503 39.5245 92.784 40.265C93.7258 41.0055 94.4945 41.8869 95.0901 42.9092C95.6858 43.9234 96.0681 45.0422 96.2371 46.2657H90.9246Z" fill="black"/>
<path d="M67.5449 31C68.9256 31 70.0449 29.8807 70.0449 28.5C70.0449 27.1193 68.9256 26 67.5449 26C66.1642 26 65.0449 27.1193 65.0449 28.5C65.0449 29.8807 66.1642 31 67.5449 31Z" fill="black"/>
<path d="M84.5449 31C85.9256 31 87.0449 29.8807 87.0449 28.5C87.0449 27.1193 85.9256 26 84.5449 26C83.1642 26 82.0449 27.1193 82.0449 28.5C82.0449 29.8807 83.1642 31 84.5449 31Z" fill="black"/>
</svg>
