<svg width="90" height="90" viewBox="0 0 90 90" fill="none" xmlns="http://www.w3.org/2000/svg">
<rect width="90" height="90" fill="white"/>
<path d="M34.228 38.2727V63H29V38.2727H34.228Z" fill="black"/>
<path d="M54.9246 46.2657C54.7556 45.6781 54.5182 45.159 54.2123 44.7082C53.9064 44.2494 53.5321 43.863 53.0894 43.5491C52.6548 43.2271 52.1557 42.9816 51.5923 42.8126C51.0369 42.6436 50.4211 42.5591 49.745 42.5591C48.4812 42.5591 47.3705 42.873 46.4127 43.5008C45.4629 44.1287 44.7223 45.0422 44.1911 46.2416C43.6598 47.4329 43.3941 48.8898 43.3941 50.6123C43.3941 52.3349 43.6558 53.7998 44.179 55.0072C44.7022 56.2146 45.4426 57.1362 46.4005 57.7721C47.3583 58.4 48.4894 58.7139 49.7933 58.7139C50.9766 58.7139 51.9867 58.5046 52.8238 58.086C53.669 57.6594 54.3129 57.0598 54.7556 56.287C55.2064 55.5143 55.4318 54.6007 55.4318 53.5463L56.4943 53.7032H50.1193V49.7671H60.4665V52.8822C60.4665 55.0555 60.0077 56.9229 59.0901 58.4845C58.1725 60.038 56.9089 61.2373 55.299 62.0825C53.6892 62.9196 51.8459 63.3382 49.7692 63.3382C47.451 63.3382 45.4145 62.827 43.6597 61.8048C41.9051 60.7745 40.5366 59.3136 39.5546 57.422C38.5807 55.5224 38.0938 53.2686 38.0938 50.6606C38.0938 48.6564 38.3834 46.8694 38.963 45.2998C39.5506 43.7222 40.3716 42.386 41.4261 41.2913C42.4805 40.1966 43.708 39.3635 45.1086 38.792C46.5092 38.2205 48.0264 37.9348 49.6604 37.9348C51.061 37.9348 52.365 38.14 53.5724 38.5505C54.7798 38.953 55.8503 39.5245 56.784 40.265C57.7258 41.0055 58.4945 41.8869 59.0901 42.9092C59.6858 43.9234 60.0681 45.0422 60.2371 46.2657H54.9246Z" fill="black"/>
<path d="M31.5449 31C32.9256 31 34.0449 29.8807 34.0449 28.5C34.0449 27.1193 32.9256 26 31.5449 26C30.1642 26 29.0449 27.1193 29.0449 28.5C29.0449 29.8807 30.1642 31 31.5449 31Z" fill="black"/>
<path d="M48.5449 31C49.9256 31 51.0449 29.8807 51.0449 28.5C51.0449 27.1193 49.9256 26 48.5449 26C47.1642 26 46.0449 27.1193 46.0449 28.5C46.0449 29.8807 47.1642 31 48.5449 31Z" fill="black"/>
</svg>
